<svg id="Capa_1" data-name="Capa 1" xmlns="http://www.w3.org/2000/svg" viewBox="0 0 90.55 92.46"><defs><style>.cls-1{fill:#e8ce3e;}</style></defs><path class="cls-1" d="M91.44,99.07l-.6-.12c-.21.19-.42.43-.66.61-.53.39-.93.27-1.16-.35a2.06,2.06,0,0,1-.13-.74,10.52,10.52,0,0,1,0-1.59,6.6,6.6,0,0,0-.49-2.79c-.8,1.09-1.71,1.91-1.92,3.2a1.29,1.29,0,0,1-.61.87c-1.27.57-1.81,1.75-2.5,2.82-.1.16-.13.35-.22.51a.68.68,0,0,1-.89.31,1.55,1.55,0,0,1-.89-1.59,4.84,4.84,0,0,0,0-2.94,5.41,5.41,0,0,1,.23-3c.14-.6.46-1.19,0-1.88-.15.23-.3.41-.41.62a28.57,28.57,0,0,0-1.91,4.17,16.11,16.11,0,0,1-1.85,3.24,5.32,5.32,0,0,0-.8,1.46c-.18.65-.58,1-.9.91-.54-.21-.51-.73-.51-1.2,0-.74,0-1.49,0-2.37a2.41,2.41,0,0,0-1,1.28c-.2.49-.36,1-.6,1.48-.13.25-.43.6-.62.59-.74,0-1.07.44-1.43.89a2.1,2.1,0,0,1-1.32.83,1.32,1.32,0,0,1-.52-1.14,5.62,5.62,0,0,0-.84-2.51c-.24.35-.44.61-.63.88L65.93,105a1.56,1.56,0,0,1-.28.38c-.27.18-.56.45-.86.46s-.46-.44-.52-.77a8.89,8.89,0,0,1-.13-1c0-.39-.09-.73-.52-.92s-.47-.65-.44-1a4.51,4.51,0,0,0-.41-2.37,2.66,2.66,0,0,1,.17-2,6.76,6.76,0,0,0,.43-1.8A4.4,4.4,0,0,1,64,94.42c.25-.53.52-1,.79-1.57C65.49,91.47,66,90,67.39,89a2.94,2.94,0,0,0,.75-.82,2.09,2.09,0,0,1,1.37-.91,1.4,1.4,0,0,0,.28-.06,3.4,3.4,0,0,1,3.41.39,2,2,0,0,1,1.74-.89c.25,0,.53-.27.77-.45s.34-.4.56-.49a.82.82,0,0,1,.69,0,.73.73,0,0,1,.08.66,5,5,0,0,1-.48.91,10.39,10.39,0,0,0-1.47,3.72,16.44,16.44,0,0,1-1,3.4A12.3,12.3,0,0,0,73.68,98l.19.07a3.38,3.38,0,0,0,.44-.4c.22-.26.39-.58.63-.82,1.26-1.24,1.38-2.83,1.52-4.47a11.46,11.46,0,0,1,.67-2.52c.4-1.24.87-2.46,1.3-3.7.19-.56.35-1.13.5-1.7.09-.32.17-.61.57-.65a.69.69,0,0,1,.74.45,1.49,1.49,0,0,0,.18.3c.91-.07,1.17-1,1.9-1.31a.58.58,0,0,1,.38.76,21.84,21.84,0,0,1-.64,2.44,9.26,9.26,0,0,0-.66,3.18l2.16-4.46c.26-.54.53-1.07.77-1.61s.45-1.09.71-1.62a1,1,0,0,1,.46-.5c.12,0,.45.18.48.33.1.45.44.55.78.71,1,.45,1.11.71.85,1.78s-.58,1.91-.86,2.87a3.69,3.69,0,0,0-.25,2.2,1.22,1.22,0,0,1-.1.64,14.65,14.65,0,0,0-.84,4.77,3,3,0,0,0,0,1,4.08,4.08,0,0,0,.5-.6q1.2-2.18,2.38-4.37a1,1,0,0,0,.06-1,1.8,1.8,0,0,1-.14-1.08,13.42,13.42,0,0,1,1.38-4.07c.2-.41.37-.84.56-1.3l-.8-.48a42.31,42.31,0,0,0,3.22-7.31,1.77,1.77,0,0,0,0-.46c-.7.12-1.35.16-2,.33a4.5,4.5,0,0,1-2,0,5.87,5.87,0,0,0-2.21.21c-1.31.24-2.64.37-4,.54-.58.08-1.18.12-1.76.23a1.37,1.37,0,0,0-.64.36c-.6.59-1.17,1.21-1.75,1.82a2.06,2.06,0,0,0-.29.37c-.33.61-.7,1.11-1.54.85-.17,0-.51.2-.65.4-.65.94-1.31,1.9-1.87,2.9a3.07,3.07,0,0,1-1.5,1.22c-.5.23-.86,0-.84-.62,0-.87.12-1.74.18-2.62,0-.12,0-.24,0-.38-.5-.14-1.15.53-1.58-.52.15-.09.44-.16.57-.35a10.83,10.83,0,0,0,.59-1.12,3.62,3.62,0,0,1,.58-1c.72-.65,1.52-1.2,2.27-1.81a12.63,12.63,0,0,1,4.28-2.24,3,3,0,0,0,.66-.36.86.86,0,0,1,.86-.19,1.58,1.58,0,0,0,.65,0c2-.28,4.08-.57,6.13-.84,1.49-.2,3-.39,4.47-.56.56-.07,1.13,0,1.69-.09,1.32-.14,1.67-.45,1.94-1.51.16-.61.35-1.21.53-1.81.25-.83.45-.91,1.32-.52a4.66,4.66,0,0,0,.66-.74c.3-.52.49-1.08,1.32-.86.16,0,.5-.33.67-.58.54-.8,1-1.64,1.58-2.44a5,5,0,0,1,.9-.93c.11-.1.32-.07.6-.13a4,4,0,0,1-.12.69c-.67,1.55-1.35,3.08-2,4.63-1.12,2.58-2.19,5.18-3.08,7.85-.68,2-1.57,4-2.37,6a14.72,14.72,0,0,0-1.25,5.55c0,.71-.18,1.42-.25,2.14,0,.38,0,.38.31.79.06,0,.15,0,.17-.06a11,11,0,0,1,1.86-2.69,6.26,6.26,0,0,0,.76-1.18,36.32,36.32,0,0,0,2.74-6.26c.67-1.95,1.52-3.84,2.27-5.76.19-.49.25-1,.48-1.51.5-1,1.07-2,1.64-3a6.12,6.12,0,0,1,.6-.84c.27-.31.54-.63,1-.46s.34.6.4,1c.72-.37,1-1.06,1.35-1.66h.8a2.16,2.16,0,0,0,.22-.23c.4-.61.77-1.22,1.18-1.81a4.67,4.67,0,0,0,.89-2.53,2.33,2.33,0,0,1,0-.38c.09-.32.26-.59.64-.55s.45.31.48.61a7.53,7.53,0,0,1-.66,4.39,21.35,21.35,0,0,1-1.66,2.71,16.72,16.72,0,0,0-1.87,3c-.67,1.55-1.5,3-2.23,4.55-.23.48-.33,1-.51,1.5-.28.8-.55,1.6-.88,2.38s-.79,1.7-1.17,2.56a7.07,7.07,0,0,0-.23.82,1.42,1.42,0,0,0,.79-1.12c.15-.57.35-1,1.06-1.13s1-.8,1.24-1.41c.52-1.17,1-2.34,1.62-3.49.17-.33.32-.86.85-.7s.32.66.3,1,0,.73.42.93a.82.82,0,0,1,.47,1c-.22,1-.42,2-.68,3s-.7,2.21-1,3.34-.41,2.4-.58,3.61a4,4,0,0,0,.13.9c1.26-.67,1-1.88,1.35-2.89l1-.16c0-.35.06-.69,0-1a10.32,10.32,0,0,1,1.52-5.44.77.77,0,0,1,.21-.31,4.12,4.12,0,0,0,1.42-2.27,7.39,7.39,0,0,1,3.75-4c.38-.22.77-.41,1.16-.6a.65.65,0,0,1,1,.39c.1.22.2.45.32.67a4.51,4.51,0,0,1,.35,4,25.56,25.56,0,0,1-1.56,3.2,7.36,7.36,0,0,1-2.54,2.45c-.35.21-.66.45-.68.83,0,1,0,2,0,3.09a4.31,4.31,0,0,0,.62-.35,10.07,10.07,0,0,1,.79-.81,1.64,1.64,0,0,0,.66-1.18,1.17,1.17,0,0,1,1-1.2c.25,0,.5-.37.64-.63.71-1.39,1.39-2.8,2.08-4.2.17-.34.35-.67.5-1,.36-.83.71-1.67,1-2.51a3.1,3.1,0,0,0-.44-3,2.08,2.08,0,0,1-.29-1.15,6.33,6.33,0,0,1,.23-1.48c.22-.86.29-.89,1.24-.59l.59-1.34a2.89,2.89,0,0,1,.3-.58c.08-.11.29-.23.37-.19a.59.59,0,0,1,.3.39c.08.46.09.93.16,1.39a1.94,1.94,0,0,0,.2.46,3.54,3.54,0,0,0,2-.83c.31-.21.57-.48.88-.7s.57-.43.92-.12.17.57,0,.86c-.34.74-.68,1.48-1,2.21-.12.26-.24.52-.38.76a1.18,1.18,0,0,0,.16,1.62,2,2,0,0,1,.42,2.4,1.31,1.31,0,0,0-.1.82,3.7,3.7,0,0,1-.2,2.11c-.45,1.85-.88,3.71-1.31,5.57a3,3,0,0,0,0,.61,4.76,4.76,0,0,0,3-2l1.33.68a23.26,23.26,0,0,0-1.35,2,8.3,8.3,0,0,1-3.25,3.52A2.31,2.31,0,0,0,124,91.68a.58.58,0,0,1-.42.4c-.17,0-.38-.15-.53-.28a.85.85,0,0,1-.21-.41c-.17-.58-.46-1-1.19-1,0-.36,0-.66,0-1,0-.72.17-1.44.14-2.15a12.72,12.72,0,0,1,.72-4.89,6.65,6.65,0,0,0,.3-1.46,1.1,1.1,0,0,0-.17-.79c-.5-.53-.29-1,.06-1.42a2.53,2.53,0,0,0,.46-1.59,2.36,2.36,0,0,0-.14-.6,6.93,6.93,0,0,0-.35.63c-.39.85-.78,1.7-1.16,2.56-.48,1-.93,2.12-1.42,3.17s-1.1,2.22-1.64,3.34c-.1.19-.12.42-.22.62a1.49,1.49,0,0,1-.41.59,7.3,7.3,0,0,0-2.42,2.81c-.58,1-1,2-1.57,3.14l-.81-.24c-.24.23-.5.5-.78.74a1,1,0,0,1-1.76-.46,10.62,10.62,0,0,1-.23-2,2.06,2.06,0,0,0-.54-1.59,4.2,4.2,0,0,1-.26.52l-2.33,3.18a1.7,1.7,0,0,1-1.74.94c-.37.74-.72,1.47-1.09,2.19-.12.26-.24.54-.6.48a.63.63,0,0,1-.52-.69c0-1-.1-1.93-.09-2.9a3.45,3.45,0,0,0-.32-1.81,5.82,5.82,0,0,1-.36-1.28h-.76c0-.18-.08-.35,0-.46.5-1.18,1-2.35,1.54-3.52a.37.37,0,0,0,0-.33c-.23.3-.48.58-.69.9a23.81,23.81,0,0,0-3.09,6.3,29,29,0,0,0-1.17,4c-.08.58-.47.88-1.19,1.25-.3-.25-.36-.82-.95-.73-.08,0-.29-.32-.32-.51a8.67,8.67,0,0,1-.14-2c.1-1,.33-2,.53-3a2.31,2.31,0,0,0,.1-.84,2.9,2.9,0,0,0-.29.51,14.28,14.28,0,0,1-2.54,4.24C92.72,97.11,92.14,98,91.44,99.07Zm-24.14.51.22.1c.54-.61,1.06-1.23,1.62-1.81a3.4,3.4,0,0,0,.92-2.57,3.16,3.16,0,0,1,.11-1.11,24.24,24.24,0,0,1,2-4.83c0-.07,0-.18,0-.26-.79-.32-.91-.29-1.29.33q-.34.57-.66,1.14C69.6,91.72,69,92.88,68.37,94a2.06,2.06,0,0,0-.14.44c-.22.82-.45,1.63-.64,2.45A8.18,8.18,0,0,0,67.3,99.58Zm50.64-22.24-.59-.36c-.24.38-.42.11-.7.46-.59.74-1.29,1.28-1.45,2.25a5.39,5.39,0,0,1-.48,1.24c-.1.21-.19.86-.29,1.07.06,0,.61.36.68.39A8.31,8.31,0,0,0,117.94,77.34Z" transform="translate(-43.49 -19.54)"/><path class="cls-1" d="M64.82,108.65a3.33,3.33,0,0,1-3.33-3l0-.06c0-.22-.07-.44-.1-.65a3.87,3.87,0,0,1-1-3.09,1.69,1.69,0,0,0-.13-.93,5,5,0,0,1,0-3.91l.14-.43a4.56,4.56,0,0,0,.22-.87,5.14,5.14,0,0,1,.76-2.27c.05-.08.09-.16.13-.24.27-.55.55-1.09.83-1.64.11-.22.22-.44.32-.66a10.09,10.09,0,0,1,3.13-4.16l.09-.12a4.92,4.92,0,0,1,3.1-2.1l.11,0a4.43,4.43,0,0,1-.08-1c0-.22,0-.44,0-.66a4.27,4.27,0,0,1-1.24-1.68l-.93-2.3,2-1.15.2-.41a.69.69,0,0,0,.07-.15,4.62,4.62,0,0,1,1.13-1.66c.51-.46,1-.85,1.52-1.23.28-.22.56-.43.84-.66a15.34,15.34,0,0,1,5.09-2.71l0,0a3.7,3.7,0,0,1,2.86-.7l2.66-.36,3.38-.46c1.23-.17,2.86-.38,4.53-.57a9.17,9.17,0,0,1,1.12-.06h.23c.09-.28.17-.55.25-.82l.16-.5a3.71,3.71,0,0,1,2-2.49,3.59,3.59,0,0,1,.85-.26,3.65,3.65,0,0,1,1.93-1.34c.11-.16.21-.33.31-.49.28-.44.56-.9.88-1.36A8.23,8.23,0,0,1,100.16,60a3.25,3.25,0,0,1,1.93-.77h.06l4-.74-.76,4c0,.06,0,.1,0,.14a4.47,4.47,0,0,1-.3,1.18L104.6,65a2.49,2.49,0,0,1,.6,0l.37-.58h.89c.18-.28.36-.56.55-.83a1.9,1.9,0,0,0,.38-1,4.45,4.45,0,0,1,.13-1,3.43,3.43,0,0,1,3.65-2.64,3.38,3.38,0,0,1,3,3.15,10.38,10.38,0,0,1-1,6,24.91,24.91,0,0,1-1.88,3.05,13.82,13.82,0,0,0-1.56,2.49c-.08.19-.17.38-.26.57a3.27,3.27,0,0,1,1,1.19,11.37,11.37,0,0,1,4.11-3.65c.43-.25.84-.45,1.24-.65l.08,0a3.71,3.71,0,0,1,2.11-.4c.05-.2.09-.4.14-.58A3.7,3.7,0,0,1,120,67.53l.44-.21a4.46,4.46,0,0,1,.5-.84,3.19,3.19,0,0,1,3.9-1,3.39,3.39,0,0,1,.94.7,3.35,3.35,0,0,1,4.09.31,3.41,3.41,0,0,1,.75,4.15c-.34.75-.69,1.49-1,2.23l0,.09v0a4.82,4.82,0,0,1,.44,4.16,6.15,6.15,0,0,1-.24,2.66c0,.09-.05.19-.08.28l-.18.74L134,83.17l-1.78,2.66c-.16.25-.33.48-.49.72a9.84,9.84,0,0,0-.71,1.08,11.06,11.06,0,0,1-4.25,4.6,3.42,3.42,0,0,1-2.9,2.68,3.47,3.47,0,0,1-2.74-1,3.32,3.32,0,0,1-.57-.67l-1.78,0v-3a8.91,8.91,0,0,0-.94,1.42c-.34.57-.65,1.22-1,1.91-.16.35-.33.7-.5,1l-1.07,2.16-1.58-.48a3.9,3.9,0,0,1-3.4.59,3.57,3.57,0,0,1-1.58-1,4.7,4.7,0,0,1-1.45,1l-.46.92a3.33,3.33,0,0,1-3.62,2,3.42,3.42,0,0,1-2.37-1.59,4.71,4.71,0,0,1-2.59,2.79l-1.67.85-1.44-1.19s0,0,0-.05l-.84-.61-.07-.06c-.13.21-.28.42-.42.63l-1.06,1.55L91.64,102a3.47,3.47,0,0,1-3,.48A3.41,3.41,0,0,1,86.77,101a8.13,8.13,0,0,0-.6.9l-.24.39a3.15,3.15,0,0,1-.25.56,3.49,3.49,0,0,1-4.28,1.6,4.11,4.11,0,0,1-2.09-1.66,4,4,0,0,1-2,2.44,3.26,3.26,0,0,1-2.63.12,4.77,4.77,0,0,1-.51-.25,2.59,2.59,0,0,1-.42.14,4.94,4.94,0,0,1-3,1.76l-1.08.2-.93-.58a3.89,3.89,0,0,1-.39-.28l-.11.15a3.4,3.4,0,0,1-1,1.15l-.1.07a4,4,0,0,1-2.28.9Zm21-6.14h0Zm5.91-4.07Zm6.81-1.53v0Zm-7.67-4.65.41,1.37.15.48c.39-.52.75-1,1-1.49l-1-1.33-.13-.18a4.86,4.86,0,0,1-.4,1Zm30.31-.84v0Zm4.41-.84ZM91.44,88.39h0ZM65.68,86.75Zm2.82-2.06h0ZM80.19,81l.24,0a3.82,3.82,0,0,1,.83-.46l1-.41.37.14a3.64,3.64,0,0,1,1.86-1.57l-.5.06L83,78.91l-.65.08-.45.05c-.36.36-.71.73-1.08,1.12l-.22.24A5.13,5.13,0,0,1,80.19,81Zm5.59-2.41a3.27,3.27,0,0,1,1.3.4,3.63,3.63,0,0,1,.89.7c.24-.48.45-1,.66-1.46l-.39-.07a3.71,3.71,0,0,0-.62.11l-.55.11Q86.43,78.47,85.78,78.56Zm-8-7.71Zm3.31-.53h0Zm12-1.68Z" transform="translate(-43.49 -19.54)"/><path class="cls-1" d="M66.52,56c-.47-.65-.27-1.14.13-1.73A5.65,5.65,0,0,0,68,52a6.45,6.45,0,0,0,1.36-2.82c.06-.15.12-.34.24-.4,1-.49,1.43-1.51,2.18-2.24s1.76-1.16,2.58-1.82a1.64,1.64,0,0,1,1.68-.26,6.37,6.37,0,0,1,.91.2c1.08.58,2.11.14,3.15-.09a.79.79,0,0,0,.37-.26,4.66,4.66,0,0,0,.3-.47c.37-.6.63-.74,1-.57a1,1,0,0,1,.52,1.19,1.63,1.63,0,0,1-.31.78,6.39,6.39,0,0,0-1.23,2.69,7.81,7.81,0,0,1-1.1,2.57,6.14,6.14,0,0,0-.55,2.33c-.1.52-.12,1-.24,1.56a9.42,9.42,0,0,0,0,3.17,3.15,3.15,0,0,0,.48-.39,12.83,12.83,0,0,0,1.16-1.58A4.55,4.55,0,0,0,81.16,54a29.93,29.93,0,0,1,1.6-6.46,15.19,15.19,0,0,1,4.34-5.92,2.88,2.88,0,0,1,1.11-.44c.5-.13.86-.34.93-.91a1.87,1.87,0,0,1,.22-.51c.37-.77.75-.86,1.46-.41a1.54,1.54,0,0,1,.84,1.13,5.38,5.38,0,0,0,.6,1.29c.46-1.8.94-3.41,1.27-5A16.39,16.39,0,0,0,94.15,32a2,2,0,0,1,.33-.85c.23-.48.5-.93.72-1.4s.48-1,.68-1.54a4.49,4.49,0,0,0,.33-1.06,5.1,5.1,0,0,1,.68-2,8.48,8.48,0,0,0,.6-1.57c.08-.2.09-.43.17-.63a.82.82,0,0,1,.87-.56.64.64,0,0,1,.41.76c-.1.87-.25,1.73-.37,2.6,0,.35-.07.7-.1,1l.19,0c.14-.26.26-.53.41-.78s.43-.44.7-.27a.77.77,0,0,1,.28.61,7,7,0,0,1-.4,1.82A14.82,14.82,0,0,0,99,31.15c-.22,1.08-.39,2.16-.68,3.22a7,7,0,0,1-.74,1.5A1.55,1.55,0,0,0,97.42,37a3.85,3.85,0,0,1,0,1.55c-.4,1.6-.87,3.19-1.29,4.78a1.7,1.7,0,0,0,0,.92,5.16,5.16,0,0,1-.25,3.57c-.35,1-.79,2-1.1,3s-.58,2.17-.84,3.27a1.55,1.55,0,0,0,0,.74,5.26,5.26,0,0,1-.1,2.4c-.19,1.2-.24,2.43-.35,3.64-.08.88-.22,1-1.24.82-.08.3-.17.61-.26.93a2,2,0,0,1-.26.69.82.82,0,0,1-.62.31.71.71,0,0,1-.51-.45c-.11-.95-.17-1.91-.22-2.87,0-.28.12-.56.1-.84-.09-1.08-.22-2.15-.35-3.35a7.24,7.24,0,0,0-1.2,2.65c0,.12,0,.25-.06.38-.15.85-.33,1-1.23.71-.48.63-1,1.26-1.45,1.93a5,5,0,0,0-.47,1.11c-.12.32-.17.67-.3,1-.19.48-.48.53-.86.2a1.88,1.88,0,0,1-.73-1.61,1.22,1.22,0,0,1-1.37,0,1.57,1.57,0,0,1-.74-1.22c-.17-.88-.39-1.75-.59-2.63a1.35,1.35,0,0,0-.34,0c-.59.27-.79.92-1.35,1.28s-.65,1-.86,1.61a2.64,2.64,0,0,1-2,1.9.67.67,0,0,0-.56.53,1.71,1.71,0,0,1-2.5,1.23.84.84,0,0,1-.4-.56,3.25,3.25,0,0,1,.31-1.91c.17-.49.16-.49-.19-1a3.81,3.81,0,0,0-1.45,1.5,6.62,6.62,0,0,1-1.48,1.66A1.5,1.5,0,0,0,69.67,66c0,.65-.33.82-.92.58-.11,0-.23-.18-.33-.17-1,.14-1.2-.63-1.46-1.34a2.52,2.52,0,0,0-.6-1,1.38,1.38,0,0,1-.46-1.44,4.51,4.51,0,0,0-.26-3.19.58.58,0,0,1,0-.37C65.87,58.07,65.68,57,66.52,56ZM88.84,44.44c-.11.23-.23.51-.38.77s-.26.6-.47.67c-.78.27-.95.92-1.12,1.58a6.49,6.49,0,0,0-.09,1c0,.37-.06.74-.12,1.1s-.12.67-.2,1a2.29,2.29,0,0,1-.22.7A3.21,3.21,0,0,0,85.66,53a4.35,4.35,0,0,1-.3,1.27,3.29,3.29,0,0,0,.08,1.84c0,.2.36.41.6.5s.4-.18.48-.35a1.45,1.45,0,0,1,1.73-.94c1.48-3.23,3.1-6.36,3-10A4.48,4.48,0,0,1,90.06,45C89.69,44.83,89.44,44.41,88.84,44.44ZM71.41,59.51l.22.06c.59-.5,1.19-1,1.76-1.5a1.82,1.82,0,0,0,.41-.61,10.59,10.59,0,0,0,.47-1.22,1.38,1.38,0,0,0,.06-.72,1.54,1.54,0,0,1,.32-1.4,3.56,3.56,0,0,0,.67-1.71A16.33,16.33,0,0,0,75.87,50a.56.56,0,0,1,.12-.26c.26-.45.5-.92.8-1.36a1,1,0,0,0,0-1.14c-.22-.38-.62-.25-.94-.18a1.21,1.21,0,0,0-.53.34,7.7,7.7,0,0,0-.91,1.06,2.31,2.31,0,0,0-.44,1,3.83,3.83,0,0,1-.8,1.87,2.74,2.74,0,0,0-.46.9A14.78,14.78,0,0,0,72.38,54c-.1.74-.1,1.49-.24,2.22C71.94,57.29,71.66,58.4,71.41,59.51Z" transform="translate(-43.49 -19.54)"/><path class="cls-1" d="M69.19,69.51a4.11,4.11,0,0,1-1.41-.27c-1.18-.12-2.64-.77-3.43-3.06L64.29,66v0a4.19,4.19,0,0,1-1.14-4.07,1.69,1.69,0,0,0-.06-1.26,3.42,3.42,0,0,1-.22-2.37,3.79,3.79,0,0,0,.08-.53,8.05,8.05,0,0,1,.48-2,4.43,4.43,0,0,1,.88-3,9.08,9.08,0,0,1,.57-.75c.11-.15.27-.34.33-.45l.13-.93.78-.7a5.54,5.54,0,0,0,.3-.83c.1-.3.2-.6.31-.89a3.29,3.29,0,0,1,1.63-1.94,6.43,6.43,0,0,0,.45-.55,10.53,10.53,0,0,1,1-1.18,10.94,10.94,0,0,1,1.93-1.42,7.86,7.86,0,0,0,.83-.56,4.54,4.54,0,0,1,4.25-.8,4.39,4.39,0,0,1,1.38.39l.37-.08a3.44,3.44,0,0,1,4.36-1.36,3.85,3.85,0,0,1,.69.39,18.94,18.94,0,0,1,1.65-1.57,4.73,4.73,0,0,1,1.46-.8l0-.08a3.86,3.86,0,0,1,2.41-2.2,3.43,3.43,0,0,1,1.53-.08l0-.12c.06-.3.13-.6.19-.9a10.37,10.37,0,0,0,.39-3A3.94,3.94,0,0,1,91.88,30l.05-.08c.12-.25.25-.49.38-.74s.23-.42.33-.63c.23-.49.43-.94.6-1.37.05-.13.14-.34.16-.42a7.88,7.88,0,0,1,1-3.06,5.3,5.3,0,0,0,.21-.57c0-.13.08-.26.13-.39h0a5.38,5.38,0,0,1,.23-.81,3.64,3.64,0,0,1,4.41-2.22,3.46,3.46,0,0,1,2.35,3.81l0,.23a3.58,3.58,0,0,1,1.13,3v.06a9.48,9.48,0,0,1-.58,2.49,7.67,7.67,0,0,0-.33,1.45c0,.31-.1.62-.16.93s-.11.55-.16.82c-.16.83-.32,1.69-.56,2.57a7.35,7.35,0,0,1-.79,1.79,6.75,6.75,0,0,1-.14,2.37c-.24,1-.51,2-.78,2.91-.15.57-.31,1.13-.46,1.7a8.25,8.25,0,0,1-.41,4.92c-.16.44-.33.88-.5,1.33s-.42,1.06-.57,1.56c-.25.8-.45,1.64-.66,2.52l-.07.32a7.55,7.55,0,0,1-.08,2.86l-.06.33c-.11.71-.17,1.47-.23,2.28l-.09,1.16a3.74,3.74,0,0,1-1.34,2.78,3.32,3.32,0,0,1-.53.33,3.82,3.82,0,0,1-.54.9,3.7,3.7,0,0,1-3.16,1.31,3.65,3.65,0,0,1-2.6-1.78c0,.1-.07.19-.11.29a3.31,3.31,0,0,1-2.34,2.09,3.36,3.36,0,0,1-3-.84,5.73,5.73,0,0,1-.87-1,5.51,5.51,0,0,1-.78-.37,4,4,0,0,1-.78-.58,5.07,5.07,0,0,1-2,1.51,4.49,4.49,0,0,1-2.07,2,4.58,4.58,0,0,1-3.75,0l-.25-.11a3.25,3.25,0,0,1-2.93,1.8Zm-.4-.29h0Zm-4.36-3.09Zm-.18-.21Zm11.57-1.67ZM68.9,61.76c0,.16,0,.32,0,.48a3.6,3.6,0,0,0,.3-.32l0-.08ZM75.46,60l0,.07c.11.16.21.32.3.47v0l.08-.24c.09-.26.21-.58.36-.93l0-.38A4.57,4.57,0,0,1,75.46,60Zm-7.11-.24h0Zm.17-.84.06.17,0-.23.24-1c0-.08,0-.17,0-.25l-.25.27a5.35,5.35,0,0,0-.08.56C68.57,58.6,68.55,58.77,68.52,59ZM84,58.68l0,.06c0,.07,0,.15.05.23l.19-.11ZM84,55h0Zm12.67-.25Zm-.06-.71h0ZM77,41.76Z" transform="translate(-43.49 -19.54)"/><path class="cls-1" d="M50.18,68.77c-1.33,0-1.68-.4-1.4-1.71.19-.88.43-1.76.59-2.65.29-1.63.47-3.28.82-4.89a21,21,0,0,0,.28-3.15,13.46,13.46,0,0,1,.88-4.2c.35-.9.58-1.84.85-2.77a1.46,1.46,0,0,0,0-.55c-.14-.73,0-.87.67-1l.42-.06c.21-.79.39-1.58.61-2.35a10.21,10.21,0,0,1,.39-1.05c.22-.58.44-1.17.68-1.74.35-.84.73-1.66,1.08-2.5a24.64,24.64,0,0,1,2.37-4.87,2.53,2.53,0,0,1,.34-.45.51.51,0,0,1,.85.17,1.59,1.59,0,0,1,.23.6,1.52,1.52,0,0,0,.67,1.19A1.32,1.32,0,0,1,61,38.38a18.29,18.29,0,0,1-1.06,3.29,38.53,38.53,0,0,0-1.81,4.11,16.81,16.81,0,0,0-.53,2.46c-.08.4-.12.8-.21,1.19-.25,1-.52,2-.78,3l.18.09a4.55,4.55,0,0,0,.43-.62,13.72,13.72,0,0,1,4.09-4.58,1.47,1.47,0,0,1,.48-.28,1.74,1.74,0,0,0,1.15-.88,1.48,1.48,0,0,1,.39-.4c.46-.34.89-.16.92.4a7,7,0,0,1-.08,1.59,2.73,2.73,0,0,0,.3,1.9,9.07,9.07,0,0,1,.87,6.07,7.32,7.32,0,0,0-.09.93,7.23,7.23,0,0,1-.46,2.38,19.83,19.83,0,0,0-.48,2.19c-.12.45-.31.88-.47,1.32-.23.61-.44,1.23-.69,1.84C62.58,65.69,62,67,61.47,68.21a2.45,2.45,0,0,1-.44.59A4.59,4.59,0,0,0,60,71c-.06.34-.11.8-.53.75s-.54-.37-.75-.62a2.17,2.17,0,0,1-.21-.69,3,3,0,0,1-.57.37.89.89,0,0,1-.61.07c-.81-.39-1.6-.83-2.39-1.26a4.25,4.25,0,0,0-.39-.25c-.55-.17-.9-.42-.69-1.09,0-.14-.14-.37-.26-.66-.33.8-.62,1.47-.88,2.15a1.53,1.53,0,0,0,0,.55c.1.75-.2,1.23-.83,1.32a1.31,1.31,0,0,1-1.2-1c-.12-.49-.21-1-.34-1.46A1.79,1.79,0,0,0,50.18,68.77Zm6.12-2.13a7.47,7.47,0,0,0,.44-.65,17,17,0,0,1,1.08-2.08,17.28,17.28,0,0,0,2.08-4.79,1.1,1.1,0,0,0-.13-1,1.08,1.08,0,0,1,.37-1.68c.25-.17.51-.32.74-.48-.38-1.15-.39-1.16.48-1.83a1.12,1.12,0,0,0,.36-1.18,1.61,1.61,0,0,0-1.52-1.35c-.34.39-.65.77-1,1.13a1.1,1.1,0,0,0-.34,1,1.21,1.21,0,0,1-.57,1.39A2.55,2.55,0,0,0,57,56.87a5,5,0,0,1-.43.83,15.68,15.68,0,0,0-.79,1.59,16.43,16.43,0,0,1-1.42,3.25c-.19.29-.37.69.07,1a4.41,4.41,0,0,1,1.48,2.23C56,66,56.1,66.24,56.3,66.64Z" transform="translate(-43.49 -19.54)"/><path class="cls-1" d="M59.46,74.57l-.31,0a3.49,3.49,0,0,1-1.88-.83,3.12,3.12,0,0,1-1.2-.3l-1.14-.58a3.76,3.76,0,0,1-2.6,1.59A4.13,4.13,0,0,1,48,71.28l0-.08a3.75,3.75,0,0,1-1.24-1A4.3,4.3,0,0,1,46,66.48c.07-.37.16-.74.25-1.11s.23-1,.31-1.46.2-1.21.29-1.81c.16-1,.32-2.11.56-3.19a10.09,10.09,0,0,0,.17-1.86c0-.29,0-.57.05-.85a16.39,16.39,0,0,1,1.07-5.07,16.64,16.64,0,0,0,.58-1.87,1.05,1.05,0,0,0,0-.19,3.55,3.55,0,0,1,.54-2.58,3.08,3.08,0,0,1,1-1c.07-.29.15-.57.23-.86a8.63,8.63,0,0,1,.38-1.07l.26-.66c.18-.47.36-.93.55-1.39s.38-.9.58-1.35.34-.77.5-1.15.23-.57.35-.85a21.69,21.69,0,0,1,2.33-4.57,3.71,3.71,0,0,1,.76-.93,3.35,3.35,0,0,1,5.27,1l0,0a4.61,4.61,0,0,1,.42,1.07,4.16,4.16,0,0,1,1.14,4.35c-.08.25-.15.51-.21.77a14.63,14.63,0,0,1-1.06,3l-.06.11a3.31,3.31,0,0,1,2.77,0,3.37,3.37,0,0,1,1.91,3,10.28,10.28,0,0,1-.12,2.24v0a11.81,11.81,0,0,1,1.19,7.86,4.56,4.56,0,0,0-.05.62,10.19,10.19,0,0,1-.65,3.3,4.75,4.75,0,0,0-.17.78c0,.32-.12.69-.21,1.07a10.86,10.86,0,0,1-.44,1.3l-.12.31-.17.48c-.18.48-.36,1-.57,1.48-.54,1.27-1.1,2.56-1.67,3.84a4.64,4.64,0,0,1-.79,1.18l-.07.08a1.73,1.73,0,0,0-.43.83A3.34,3.34,0,0,1,59.46,74.57ZM53.67,54.21a11.84,11.84,0,0,0-.36,2.33c0,.25,0,.49,0,.74s0,.37,0,.57c.17-.39.36-.74.53-1.06L54,56.4q.12-.24.27-.48l0,0a5.4,5.4,0,0,1,.47-1.14Zm13.26-5.83ZM57,35.68Z" transform="translate(-43.49 -19.54)"/><path class="cls-1" d="M54.16,108.14a7.37,7.37,0,0,1-.69.78c-.54.43-1,.25-1-.43,0-1.09,0-2.19.08-3.28,0-.34.13-.68.16-1a1,1,0,0,0-.08-.61,2,2,0,0,1-.27-1.43,15.79,15.79,0,0,1,1-4.76c.09-.26.15-.53.22-.79-1-.4-1.09-.54-.71-1.54a16.83,16.83,0,0,1,.74-1.62A27.35,27.35,0,0,0,55.22,89c-.29-.24-.64-.38-.71-.62s.08-.6.15-.9a1.48,1.48,0,0,1,.13-.35c.85-1.42,1.68-2.86,2.56-4.26a1.77,1.77,0,0,1,2-1,6.89,6.89,0,0,1,.4-1.06.88.88,0,0,1,.55-.4c.13,0,.34.22.45.39a2.64,2.64,0,0,1,.33,1.88,19,19,0,0,1-1.45,5.39,2.1,2.1,0,0,0-.13.55c-.19,1.13-.38,2.26-.59,3.54a10.36,10.36,0,0,0,2.33-2.77,3.73,3.73,0,0,1,.62-1A6.69,6.69,0,0,0,63.37,84a9.45,9.45,0,0,1,.38-3.11,4,4,0,0,0,0-2,6.93,6.93,0,0,0-.57-1.49c-.2-.46-.44-.54-.89-.34a2.65,2.65,0,0,0-.64.4,3.87,3.87,0,0,1-2.25.82,2.56,2.56,0,0,0-1.75.82,41.24,41.24,0,0,0-3.09,3.39,19.73,19.73,0,0,0-1.89,3.24c-.73,1.49-1.36,3-2,4.53-.34.74-.7,1.47-1,2.21-.15.3-.33.54-.71.5a.61.61,0,0,1-.56-.65,15.32,15.32,0,0,1,.19-2c0-.36.32-.7-.08-1a.63.63,0,0,1-.09-.35A2.34,2.34,0,0,0,47,86.59l.41-.9a15.86,15.86,0,0,1,3-4,3.51,3.51,0,0,0,.77-1,4.47,4.47,0,0,1,1.77-2,6.76,6.76,0,0,0,2.1-1.85,1.79,1.79,0,0,1,.82-.6,35.4,35.4,0,0,1,6-2.28,9.46,9.46,0,0,1,3.86,0c1.06.17,1.39.67,1.44,1.75,0,.7.09,1.36.87,1.71.17.08.28.4.31.63.11.86.19,1.74.28,2.61a1,1,0,0,1,0,.46,5.6,5.6,0,0,0-.22,2.3,5.12,5.12,0,0,1-1,2.86c-.14.18-.34.34-.38.54-.18,1-1,1.64-1.55,2.4a29,29,0,0,0-2.73,3.68A3.18,3.18,0,0,1,61,94.35c-.18.06-.41.11-.5.24a4.29,4.29,0,0,1-2.12,1.46,1.32,1.32,0,0,0-.82,1.25c-.08,1.34-.18,2.68-.28,4a4.36,4.36,0,0,1-.18,1.2,27.6,27.6,0,0,0-1.32,5.54,1.41,1.41,0,0,1-.14.44c-.28.59-.75.66-1.17.18A5.74,5.74,0,0,1,54.16,108.14Z" transform="translate(-43.49 -19.54)"/><path class="cls-1" d="M52.92,112a3.32,3.32,0,0,1-1.37-.3,3.44,3.44,0,0,1-1.95-3.12c0-1,0-2.07.06-3l0-.44a5.25,5.25,0,0,1,.09-.78,5,5,0,0,1-.29-2.12v-.13a17,17,0,0,1,.78-4.49,3.14,3.14,0,0,1-.46-1.91,3.61,3.61,0,0,1-1.31.1,3.48,3.48,0,0,1-3.08-3.53,20.68,20.68,0,0,1,.2-2.25,4.2,4.2,0,0,1-.17-.83,1.25,1.25,0,0,0,0-.21l0,0-1.89-1.36,1.07-2.38c.1-.22.21-.45.31-.68a18.55,18.55,0,0,1,3.5-4.79l.25-.27a7.3,7.3,0,0,1,2.69-3.14l.51-.35a4.31,4.31,0,0,0,.84-.67,4.45,4.45,0,0,1,2.11-1.74l.82-.35a32.35,32.35,0,0,1,5.69-2.08,12.27,12.27,0,0,1,5,0,4.28,4.28,0,0,1,3.81,4.2,3.78,3.78,0,0,1,1.17,2.32c.1.77.17,1.53.25,2.27l0,.44a3.58,3.58,0,0,1-.23,1.86v.38a8.12,8.12,0,0,1,0,1A7.83,7.83,0,0,1,69.67,88a7.11,7.11,0,0,1-1.55,2.49,4.71,4.71,0,0,0-.36.42c-.31.41-.64.81-1,1.21a13.13,13.13,0,0,0-1.51,2.09,6.12,6.12,0,0,1-2.92,2.72,6.43,6.43,0,0,1-2,1.4c-.08,1.2-.16,2.35-.24,3.26v.17a6.11,6.11,0,0,1-.33,1.81,25.14,25.14,0,0,0-1.18,5,4.15,4.15,0,0,1-.38,1.24,3.53,3.53,0,0,1-2.73,2.08,3.42,3.42,0,0,1-1.28-.07A3.61,3.61,0,0,1,52.92,112Zm.09-4.38h0Zm-2.66-2.29h0Zm-3.8-13.94h0Zm.41-.18h0Zm24.27-8.9ZM48.56,79.56h0Zm20.72-4.8h0Z" transform="translate(-43.49 -19.54)"/><path d="M91.24,99.07l-.6-.12a6.53,6.53,0,0,1-.66.61c-.53.39-.93.27-1.16-.35a2.06,2.06,0,0,1-.13-.74,12,12,0,0,1,.06-1.59,6.77,6.77,0,0,0-.5-2.79c-.8,1.09-1.71,1.91-1.92,3.2a1.31,1.31,0,0,1-.6.87c-1.28.57-1.82,1.75-2.51,2.82-.1.16-.13.35-.22.51a.68.68,0,0,1-.89.31,1.55,1.55,0,0,1-.88-1.59,4.92,4.92,0,0,0-.06-2.94,5.5,5.5,0,0,1,.24-3c.13-.6.45-1.19,0-1.88-.16.23-.3.41-.42.62a30.85,30.85,0,0,0-1.91,4.17,15.59,15.59,0,0,1-1.84,3.24,5.35,5.35,0,0,0-.81,1.46c-.18.65-.58,1-.9.91-.54-.21-.5-.73-.51-1.2,0-.74,0-1.49,0-2.37a2.52,2.52,0,0,0-1,1.28,13.48,13.48,0,0,1-.6,1.48c-.13.25-.42.6-.62.59-.73,0-1.06.44-1.42.89a2.1,2.1,0,0,1-1.33.83,1.35,1.35,0,0,1-.52-1.14,5.6,5.6,0,0,0-.83-2.51c-.25.35-.45.61-.63.88L65.73,105a1.34,1.34,0,0,1-.28.38c-.27.18-.56.45-.85.46s-.46-.44-.53-.77a7.09,7.09,0,0,1-.12-1,.93.93,0,0,0-.52-.92c-.45-.19-.48-.65-.45-1a4.51,4.51,0,0,0-.41-2.37,2.71,2.71,0,0,1,.18-2,7.17,7.17,0,0,0,.43-1.8,4.16,4.16,0,0,1,.61-1.44c.26-.53.52-1,.79-1.57.71-1.38,1.25-2.88,2.61-3.83A3.13,3.13,0,0,0,68,88.2a2.07,2.07,0,0,1,1.36-.91,1.15,1.15,0,0,0,.28-.06,3.39,3.39,0,0,1,3.41.39,2,2,0,0,1,1.74-.89c.25,0,.53-.27.77-.45s.35-.4.56-.49a.82.82,0,0,1,.69,0,.73.73,0,0,1,.08.66,4.42,4.42,0,0,1-.48.91,10.38,10.38,0,0,0-1.46,3.72,17.1,17.1,0,0,1-1,3.4A13.09,13.09,0,0,0,73.48,98l.2.07a5.48,5.48,0,0,0,.44-.4c.22-.26.38-.58.62-.82C76,95.57,76.13,94,76.26,92.34a11.46,11.46,0,0,1,.67-2.52c.41-1.24.88-2.46,1.3-3.7.19-.56.35-1.13.51-1.7.08-.32.16-.61.56-.65a.68.68,0,0,1,.74.45,2.2,2.2,0,0,0,.19.3c.91-.07,1.17-1,1.89-1.31a.58.58,0,0,1,.38.76,21.84,21.84,0,0,1-.64,2.44,9.5,9.5,0,0,0-.66,3.18q1.1-2.24,2.17-4.46c.26-.54.52-1.07.77-1.61s.44-1.09.7-1.62a1,1,0,0,1,.46-.5c.12,0,.45.18.48.33.11.45.45.55.79.71,1,.45,1.1.71.84,1.78s-.57,1.91-.86,2.87a3.69,3.69,0,0,0-.25,2.2,1.12,1.12,0,0,1-.1.64,14.92,14.92,0,0,0-.84,4.77,3.32,3.32,0,0,0,0,1,3.54,3.54,0,0,0,.5-.6q1.2-2.18,2.38-4.37a1,1,0,0,0,.06-1,1.88,1.88,0,0,1-.14-1.08,13.7,13.7,0,0,1,1.38-4.07c.2-.41.37-.84.57-1.3l-.81-.48a42.36,42.36,0,0,0,3.23-7.31,2.39,2.39,0,0,0,0-.46c-.71.12-1.36.16-2,.33a4.54,4.54,0,0,1-2,0,5.87,5.87,0,0,0-2.21.21c-1.31.24-2.63.37-4,.54-.59.08-1.18.12-1.76.23a1.37,1.37,0,0,0-.64.36c-.6.59-1.18,1.21-1.76,1.82a1.64,1.64,0,0,0-.28.37c-.34.61-.7,1.11-1.55.85-.16,0-.51.2-.65.4-.65.94-1.3,1.9-1.87,2.9a3,3,0,0,1-1.5,1.22c-.49.23-.86,0-.83-.62,0-.87.11-1.74.17-2.62,0-.12,0-.24,0-.38-.5-.14-1.15.53-1.57-.52.14-.09.43-.16.56-.35a9.25,9.25,0,0,0,.6-1.12,3.59,3.59,0,0,1,.57-1c.72-.65,1.52-1.2,2.27-1.81a12.63,12.63,0,0,1,4.28-2.24,2.82,2.82,0,0,0,.66-.36A.87.87,0,0,1,80,73a1.58,1.58,0,0,0,.65,0l6.13-.84c1.49-.2,3-.39,4.47-.56.56-.07,1.13,0,1.69-.09,1.33-.14,1.67-.45,1.94-1.51.16-.61.36-1.21.53-1.81.25-.83.45-.91,1.32-.52a4.72,4.72,0,0,0,.67-.74c.3-.52.49-1.08,1.31-.86.16,0,.51-.33.67-.58.55-.8,1-1.64,1.58-2.44a5,5,0,0,1,.9-.93c.11-.1.33-.07.61-.13a3.87,3.87,0,0,1-.13.69c-.67,1.55-1.35,3.08-2,4.63-1.13,2.58-2.19,5.18-3.08,7.85-.69,2-1.58,4-2.37,6a14.73,14.73,0,0,0-1.26,5.55c0,.71-.18,1.42-.24,2.14,0,.38,0,.38.31.79,0,0,.14,0,.16-.06a10.82,10.82,0,0,1,1.87-2.69,6.26,6.26,0,0,0,.76-1.18,37.94,37.94,0,0,0,2.74-6.26c.67-1.95,1.52-3.84,2.27-5.76.19-.49.24-1,.47-1.51.51-1,1.08-2,1.64-3a6.2,6.2,0,0,1,.61-.84c.26-.31.53-.63,1-.46s.34.6.41,1c.72-.37,1-1.06,1.34-1.66h.8A2.45,2.45,0,0,0,108,67c.39-.61.76-1.22,1.18-1.81a4.75,4.75,0,0,0,.89-2.53,1.58,1.58,0,0,1,0-.38c.09-.32.26-.59.65-.55s.44.31.47.61a7.52,7.52,0,0,1-.65,4.39,22.64,22.64,0,0,1-1.67,2.71,16.13,16.13,0,0,0-1.86,3c-.68,1.55-1.51,3-2.24,4.55a13.88,13.88,0,0,0-.5,1.5c-.29.8-.56,1.6-.88,2.38s-.79,1.7-1.18,2.56a7.07,7.07,0,0,0-.23.82,1.4,1.4,0,0,0,.79-1.12c.16-.57.35-1,1.06-1.13s1-.8,1.25-1.41c.52-1.17,1-2.34,1.61-3.49.17-.33.32-.86.86-.7s.32.66.3,1,0,.73.41.93a.81.81,0,0,1,.47,1c-.22,1-.42,2-.68,3s-.7,2.21-1,3.34-.41,2.4-.57,3.61a3.44,3.44,0,0,0,.12.9c1.26-.67,1-1.88,1.36-2.89l1-.16c0-.35.06-.69,0-1a10.5,10.5,0,0,1,1.52-5.44.7.7,0,0,1,.22-.31,4.17,4.17,0,0,0,1.42-2.27,7.33,7.33,0,0,1,3.74-4c.38-.22.77-.41,1.17-.6s.81-.12,1,.39a6.68,6.68,0,0,0,.31.67,4.45,4.45,0,0,1,.35,4,27,27,0,0,1-1.55,3.2,7.3,7.3,0,0,1-2.55,2.45c-.35.21-.66.45-.67.83,0,1,0,2,0,3.09a4,4,0,0,0,.61-.35c.28-.26.5-.58.79-.81a1.65,1.65,0,0,0,.67-1.18,1.17,1.17,0,0,1,1-1.2c.25,0,.51-.37.64-.63.72-1.39,1.4-2.8,2.09-4.2.16-.34.35-.67.49-1,.36-.83.71-1.67,1-2.51a3.1,3.1,0,0,0-.45-3,2.26,2.26,0,0,1-.29-1.15,5.86,5.86,0,0,1,.24-1.48c.21-.86.29-.89,1.23-.59.19-.44.39-.89.6-1.34a2.86,2.86,0,0,1,.29-.58c.08-.11.3-.23.37-.19a.63.63,0,0,1,.31.39c.07.46.09.93.15,1.39a1.66,1.66,0,0,0,.21.46,3.51,3.51,0,0,0,1.94-.83c.31-.21.58-.48.88-.7s.57-.43.92-.12.17.57,0,.86c-.33.74-.68,1.48-1,2.21-.12.26-.24.52-.38.76a1.2,1.2,0,0,0,.16,1.62,2,2,0,0,1,.42,2.4,1.39,1.39,0,0,0-.1.82,3.62,3.62,0,0,1-.19,2.11c-.46,1.85-.89,3.71-1.32,5.57a3.08,3.08,0,0,0,0,.61,4.73,4.73,0,0,0,3-2l1.33.68c-.47.71-1,1.35-1.35,2a8.24,8.24,0,0,1-3.25,3.52,2.33,2.33,0,0,0-1.28,1.86.57.57,0,0,1-.42.4c-.16,0-.38-.15-.52-.28a.86.86,0,0,1-.22-.41c-.17-.58-.45-1-1.19-1,0-.36,0-.66,0-1a19.56,19.56,0,0,0,.14-2.15,13.12,13.12,0,0,1,.72-4.89,6.65,6.65,0,0,0,.3-1.46,1.1,1.1,0,0,0-.17-.79c-.5-.53-.29-1,.06-1.42a2.48,2.48,0,0,0,.47-1.59,3.15,3.15,0,0,0-.15-.6c-.17.3-.27.46-.35.63-.39.85-.78,1.7-1.16,2.56-.47,1-.92,2.12-1.42,3.17s-1.1,2.22-1.64,3.34c-.09.19-.12.42-.22.62a1.49,1.49,0,0,1-.41.59,7.19,7.19,0,0,0-2.41,2.81c-.58,1-1,2-1.58,3.14l-.81-.24c-.24.23-.49.5-.77.74-.72.61-1.51.43-1.76-.46a9.89,9.89,0,0,1-.24-2,2.06,2.06,0,0,0-.54-1.59,3.15,3.15,0,0,1-.26.52l-2.33,3.18a1.7,1.7,0,0,1-1.73.94l-1.09,2.19c-.13.26-.25.54-.61.48a.63.63,0,0,1-.52-.69c0-1-.09-1.93-.08-2.9a3.46,3.46,0,0,0-.33-1.81,5.83,5.83,0,0,1-.35-1.28h-.76c0-.18-.09-.35,0-.46.5-1.18,1-2.35,1.54-3.52a.34.34,0,0,0,0-.33c-.24.3-.49.58-.7.9a24.12,24.12,0,0,0-3.09,6.3,28.93,28.93,0,0,0-1.16,4c-.09.58-.48.88-1.2,1.25-.29-.25-.36-.82-1-.73-.08,0-.29-.32-.31-.51a8.68,8.68,0,0,1-.15-2c.1-1,.34-2,.53-3a2.31,2.31,0,0,0,.1-.84,2.9,2.9,0,0,0-.29.51,14.28,14.28,0,0,1-2.54,4.24C92.53,97.11,92,98,91.24,99.07Zm-24.13.51.22.1c.53-.61,1-1.23,1.61-1.81a3.37,3.37,0,0,0,.93-2.57,3.16,3.16,0,0,1,.1-1.11,24.24,24.24,0,0,1,2-4.83c0-.07,0-.18,0-.26-.8-.32-.92-.29-1.3.33-.23.38-.44.76-.65,1.14-.63,1.15-1.24,2.31-1.86,3.47a2.06,2.06,0,0,0-.14.44c-.22.82-.45,1.63-.64,2.45A7.91,7.91,0,0,0,67.11,99.58Zm50.63-22.24-.59-.36c-.24.38-.42.11-.7.46-.58.74-1.28,1.28-1.45,2.25a4.93,4.93,0,0,1-.47,1.24c-.11.21-.2.86-.3,1.07l.68.39A8.26,8.26,0,0,0,117.74,77.34Z" transform="translate(-43.49 -19.54)"/><path d="M66.33,56c-.47-.65-.27-1.14.13-1.73A5.52,5.52,0,0,0,67.81,52a6.58,6.58,0,0,0,1.37-2.82c0-.15.12-.34.23-.4,1-.49,1.43-1.51,2.18-2.24s1.76-1.16,2.58-1.82a1.66,1.66,0,0,1,1.69-.26,6.68,6.68,0,0,1,.91.2c1.07.58,2.1.14,3.14-.09a.79.79,0,0,0,.37-.26,4.66,4.66,0,0,0,.3-.47c.38-.6.63-.74,1-.57a1,1,0,0,1,.53,1.19,1.86,1.86,0,0,1-.31.78,6.41,6.41,0,0,0-1.24,2.69,7.41,7.41,0,0,1-1.1,2.57,6.54,6.54,0,0,0-.55,2.33c-.09.52-.12,1-.24,1.56a9.43,9.43,0,0,0,.06,3.17,2.93,2.93,0,0,0,.47-.39,14,14,0,0,0,1.17-1.58A4.76,4.76,0,0,0,81,54a29.36,29.36,0,0,1,1.6-6.46,15.07,15.07,0,0,1,4.33-5.92A2.94,2.94,0,0,1,88,41.21c.5-.13.86-.34.94-.91a1.84,1.84,0,0,1,.21-.51c.37-.77.76-.86,1.47-.41a1.51,1.51,0,0,1,.83,1.13,5.11,5.11,0,0,0,.61,1.29c.45-1.8.93-3.41,1.26-5A16.06,16.06,0,0,0,94,32a1.9,1.9,0,0,1,.34-.85c.23-.48.49-.93.72-1.4s.47-1,.68-1.54A5,5,0,0,0,96,27.18a5.26,5.26,0,0,1,.68-2,9.29,9.29,0,0,0,.61-1.57c.07-.2.08-.43.16-.63a.82.82,0,0,1,.87-.56.66.66,0,0,1,.42.76c-.11.87-.26,1.73-.38,2.6-.05.35-.07.7-.1,1l.2,0c.13-.26.25-.53.4-.78s.43-.44.7-.27a.71.71,0,0,1,.28.61,7.38,7.38,0,0,1-.39,1.82,14.85,14.85,0,0,0-.66,2.92c-.21,1.08-.39,2.16-.67,3.22a7,7,0,0,1-.75,1.5A1.65,1.65,0,0,0,97.22,37a3.68,3.68,0,0,1,0,1.55c-.39,1.6-.87,3.19-1.29,4.78a1.81,1.81,0,0,0,0,.92,5.16,5.16,0,0,1-.25,3.57c-.35,1-.78,2-1.1,3s-.57,2.17-.84,3.27a1.55,1.55,0,0,0,0,.74,5.4,5.4,0,0,1-.1,2.4c-.2,1.2-.24,2.43-.35,3.64-.08.88-.22,1-1.24.82-.09.3-.17.61-.27.93a1.83,1.83,0,0,1-.25.69.83.83,0,0,1-.62.31.69.69,0,0,1-.51-.45c-.12-.95-.17-1.91-.22-2.87,0-.28.12-.56.09-.84-.09-1.08-.22-2.15-.35-3.35a7.24,7.24,0,0,0-1.2,2.65,2.32,2.32,0,0,0,0,.38c-.15.85-.34,1-1.23.71-.48.63-1,1.26-1.45,1.93a5,5,0,0,0-.48,1.11c-.11.32-.16.67-.29,1-.2.48-.49.53-.86.2a1.86,1.86,0,0,1-.73-1.61,1.22,1.22,0,0,1-1.37,0,1.55,1.55,0,0,1-.75-1.22c-.16-.88-.38-1.75-.58-2.63a1.3,1.3,0,0,0-.34,0c-.59.27-.79.92-1.36,1.28s-.64,1-.86,1.61a2.64,2.64,0,0,1-2,1.9.67.67,0,0,0-.56.53,1.71,1.71,0,0,1-2.5,1.23.88.88,0,0,1-.4-.56,3.33,3.33,0,0,1,.31-1.91c.18-.49.16-.49-.19-1a4,4,0,0,0-1.45,1.5A6.78,6.78,0,0,1,70,64.86,1.51,1.51,0,0,0,69.47,66c0,.65-.33.82-.92.58-.11,0-.22-.18-.32-.17-1,.14-1.2-.63-1.46-1.34a2.54,2.54,0,0,0-.61-1,1.37,1.37,0,0,1-.45-1.44,4.56,4.56,0,0,0-.27-3.19.58.58,0,0,1,0-.37C65.68,58.07,65.48,57,66.33,56ZM88.65,44.44c-.12.23-.24.51-.39.77s-.26.6-.46.67c-.79.27-1,.92-1.12,1.58a6.51,6.51,0,0,0-.1,1c0,.37-.06.74-.11,1.1s-.13.67-.21,1a2.29,2.29,0,0,1-.22.7A3.29,3.29,0,0,0,85.46,53a4.35,4.35,0,0,1-.3,1.27,3.38,3.38,0,0,0,.08,1.84c0,.2.37.41.6.5s.4-.18.48-.35a1.45,1.45,0,0,1,1.73-.94c1.48-3.23,3.11-6.36,3-10A4.48,4.48,0,0,1,89.86,45C89.5,44.83,89.25,44.41,88.65,44.44ZM71.21,59.51l.22.06c.59-.5,1.19-1,1.76-1.5a1.82,1.82,0,0,0,.41-.61,9.08,9.08,0,0,0,.48-1.22,1.49,1.49,0,0,0,.06-.72,1.5,1.5,0,0,1,.31-1.4,3.46,3.46,0,0,0,.67-1.71A16.33,16.33,0,0,0,75.67,50a.56.56,0,0,1,.12-.26c.26-.45.51-.92.81-1.36a1,1,0,0,0,0-1.14c-.21-.38-.61-.25-.93-.18a1.16,1.16,0,0,0-.53.34,7.14,7.14,0,0,0-.92,1.06,2.44,2.44,0,0,0-.44,1,3.83,3.83,0,0,1-.8,1.87,2.54,2.54,0,0,0-.45.9A14.81,14.81,0,0,0,72.18,54c-.09.74-.1,1.49-.23,2.22C71.74,57.29,71.46,58.4,71.21,59.51Z" transform="translate(-43.49 -19.54)"/><path d="M50,68.77c-1.32,0-1.67-.4-1.4-1.71.19-.88.43-1.76.59-2.65.29-1.63.47-3.28.82-4.89a18.63,18.63,0,0,0,.28-3.15,13.48,13.48,0,0,1,.89-4.2c.35-.9.58-1.84.84-2.77a1.14,1.14,0,0,0,0-.55c-.13-.73,0-.87.67-1l.43-.06c.2-.79.38-1.58.6-2.35.1-.36.26-.7.39-1.05.23-.58.45-1.17.69-1.74.35-.84.72-1.66,1.07-2.5a25.24,25.24,0,0,1,2.38-4.87,2.48,2.48,0,0,1,.33-.45.51.51,0,0,1,.85.17,1.44,1.44,0,0,1,.23.6,1.54,1.54,0,0,0,.67,1.19,1.32,1.32,0,0,1,.49,1.58,17.56,17.56,0,0,1-1.07,3.29,38.46,38.46,0,0,0-1.8,4.11,15.6,15.6,0,0,0-.53,2.46c-.08.4-.12.8-.22,1.19-.25,1-.52,2-.78,3l.18.09A4.61,4.61,0,0,0,57,52a13.51,13.51,0,0,1,4.09-4.58,1.34,1.34,0,0,1,.47-.28,1.78,1.78,0,0,0,1.16-.88,1.35,1.35,0,0,1,.39-.4c.45-.34.88-.16.91.4a7,7,0,0,1-.08,1.59,2.73,2.73,0,0,0,.3,1.9,9,9,0,0,1,.87,6.07c0,.31-.07.62-.08.93a7.23,7.23,0,0,1-.46,2.38,17.8,17.8,0,0,0-.49,2.19,10.94,10.94,0,0,1-.47,1.32c-.22.61-.44,1.23-.69,1.84-.53,1.26-1.08,2.52-1.64,3.78a2.8,2.8,0,0,1-.45.59,4.69,4.69,0,0,0-1,2.17c-.06.34-.11.8-.53.75s-.54-.37-.74-.62a1.93,1.93,0,0,1-.22-.69,3.34,3.34,0,0,1-.56.37.92.92,0,0,1-.62.07c-.81-.39-1.59-.83-2.39-1.26a3.22,3.22,0,0,0-.39-.25c-.54-.17-.9-.42-.68-1.09,0-.14-.14-.37-.27-.66-.33.8-.62,1.47-.87,2.15a1.18,1.18,0,0,0,.05.55c.09.75-.21,1.23-.84,1.32a1.31,1.31,0,0,1-1.2-1c-.11-.49-.21-1-.33-1.46A1.83,1.83,0,0,0,50,68.77Zm6.12-2.13c.24-.35.36-.49.45-.65a15.69,15.69,0,0,1,1.07-2.08,17,17,0,0,0,2.08-4.79,1.1,1.1,0,0,0-.12-1,1.07,1.07,0,0,1,.36-1.68l.75-.48c-.39-1.15-.4-1.16.48-1.83a1.1,1.1,0,0,0,.35-1.18A1.6,1.6,0,0,0,60,51.55c-.33.39-.65.77-1,1.13a1.13,1.13,0,0,0-.34,1,1.22,1.22,0,0,1-.56,1.39,2.5,2.5,0,0,0-1.36,1.79,6,6,0,0,1-.44.83,15.68,15.68,0,0,0-.79,1.59,17,17,0,0,1-1.41,3.25c-.2.29-.37.69.06,1a4.35,4.35,0,0,1,1.48,2.23C55.76,66,55.9,66.24,56.1,66.64Z" transform="translate(-43.49 -19.54)"/><path d="M54,108.14a6.39,6.39,0,0,1-.69.78c-.54.43-1,.25-1-.43,0-1.09,0-2.19.07-3.28,0-.34.14-.68.16-1a1,1,0,0,0-.08-.61,2,2,0,0,1-.26-1.43,16.08,16.08,0,0,1,1-4.76c.09-.26.15-.53.23-.79-1-.4-1.09-.54-.72-1.54a16.83,16.83,0,0,1,.74-1.62A27.39,27.39,0,0,0,55,89c-.29-.24-.64-.38-.72-.62a2,2,0,0,1,.15-.9,1.51,1.51,0,0,1,.14-.35c.84-1.42,1.67-2.86,2.56-4.26a1.75,1.75,0,0,1,2-1,8.11,8.11,0,0,1,.4-1.06.87.87,0,0,1,.56-.4c.12,0,.34.22.44.39a2.59,2.59,0,0,1,.33,1.88,18.32,18.32,0,0,1-1.45,5.39,2.08,2.08,0,0,0-.12.55c-.2,1.13-.38,2.26-.6,3.54a10.59,10.59,0,0,0,2.34-2.77,3.48,3.48,0,0,1,.61-1A6.64,6.64,0,0,0,63.17,84a9.46,9.46,0,0,1,.39-3.11,4,4,0,0,0-.06-2,6,6,0,0,0-.57-1.49c-.2-.46-.43-.54-.89-.34a2.65,2.65,0,0,0-.64.4,3.83,3.83,0,0,1-2.25.82,2.52,2.52,0,0,0-1.74.82,41.37,41.37,0,0,0-3.1,3.39,19.68,19.68,0,0,0-1.88,3.24c-.74,1.49-1.37,3-2,4.53-.34.74-.69,1.47-1,2.21-.14.3-.32.54-.71.5a.62.62,0,0,1-.56-.65,15.32,15.32,0,0,1,.19-2c.05-.36.33-.7-.07-1-.08-.07-.09-.23-.1-.35a2.31,2.31,0,0,0-1.25-2.28c.14-.29.27-.6.41-.9a15.67,15.67,0,0,1,3-4,3.89,3.89,0,0,0,.77-1,4.42,4.42,0,0,1,1.77-2,7,7,0,0,0,2.1-1.85,1.77,1.77,0,0,1,.81-.6,35.72,35.72,0,0,1,6-2.28,9.51,9.51,0,0,1,3.87,0c1.06.17,1.39.67,1.44,1.75,0,.7.09,1.36.87,1.71.16.08.27.4.3.63.12.86.19,1.74.28,2.61a.89.89,0,0,1,0,.46,6,6,0,0,0-.22,2.3,5,5,0,0,1-1,2.86c-.14.18-.34.34-.37.54-.18,1-1,1.64-1.56,2.4a28,28,0,0,0-2.72,3.68,3.24,3.24,0,0,1-1.73,1.52c-.17.06-.41.11-.49.24a4.32,4.32,0,0,1-2.13,1.46,1.35,1.35,0,0,0-.82,1.25c-.08,1.34-.17,2.68-.28,4a4.36,4.36,0,0,1-.18,1.2,27.6,27.6,0,0,0-1.32,5.54,1.71,1.71,0,0,1-.13.44c-.28.59-.75.66-1.17.18A5.57,5.57,0,0,1,54,108.14Z" transform="translate(-43.49 -19.54)"/></svg>